<?xml version="1.0" encoding="UTF-8" standalone="no"?>
<!DOCTYPE svg PUBLIC "-//W3C//DTD SVG 1.1//EN"
"http://www.w3.org/Graphics/SVG/1.1/DTD/svg11.dtd">


<!-- Page 1 -->
<svg x="0" y="0" width="909" height="1286" viewBox="0 0 909 1286" version="1.1" xmlns="http://www.w3.org/2000/svg" xmlns:xlink="http://www.w3.org/1999/xlink"
style="display: block;margin-left: auto;margin-right: auto;">
<defs>
<clipPath id="c_1"><path d="M0,0H909V1286H0Z" /></clipPath>
<style type="text/css"><![CDATA[
text { white-space: pre; }
path, image { pointer-events: none; }

.s1_1{
font-size: 43.55px;
font-family: MonotypeCorsiva_1o;
fill: #996699;
}
.s2_1{
font-size: 43.55px;
font-family: MonotypeCorsiva_1j;
fill: #996699;
}
.s3_1{
font-size: 38.98px;
font-family: MonotypeCorsiva_1o;
fill: #996699;
}

.g0_1{
fill: #E4E4E4;
}
.g1_1{
fill: none;
stroke: #B6B6B7;
stroke-width: 1.5277778;
stroke-linecap: butt;
stroke-linejoin: miter;
stroke-miterlimit: 4;
}
.g2_1{
fill: #986698;
}
.g3_1{
fill: #AB4D9C;
}
.g4_1{
fill: #B6B6B7;
}
.g5_1{
fill: #FFFFFF;
}
.g6_1{
fill: #FFFFFF;
fill-opacity: 0.5399929;
}

]]></style>

</defs>
<g clip-path="url(#c_1)">
<path d="M0,0
L0,1286
L909,1286
L909,0 Z " 
fill="#FFFFFF" stroke="none" />
<path d="M488.8,610.5c0,0,3.7,19.9,-3.4,24.9l14,-1.5l3.3,-16.4l-.7,-11Z" class="g0_1" />
<path d="M488.8,610.5c0,0,3.7,19.9,-3.4,24.9l14,-1.5l3.3,-16.4l-.7,-11l-13.2,4Z" class="g1_1" />
<path d="M380.7,721.4c7,4.3,13,0,13,0l-1,-3.8c-6.3,5.8,-9.9,1.4,-9.9,1.4c-8.8,-5.4,-11.1,.2,-11.1,.2l-16.7,12c-9,9.6,14.8,29,14.8,29c4.4,5.2,2.1,5.3,2.1,5.3c-14.4,6.4,-39,4,-39,4c-15.5,-.7,-10.4,-7.6,-10.4,-7.6c-.2,-3.2,8.1,-55.1,8.1,-55.1c1.6,-7.9,5,-59.7,5.3,-64.7l4.7,-2.2l-2.7,-2.2l-6.6,2.1c-11.8,-3.8,-9,3.6,-9,3.6c1.9,25.8,-12,112.5,-12,112.5c-7,25.2,15,28.1,15,28.1c43.1,8.4,61.2,-10,61.2,-10C396.4,760.5,372,741.6,372,741.6c-3.5,-2.9,-1.4,-4.6,-1.4,-4.6l4.2,-3.8c2.8,-1.8,.8,-5.6,.8,-5.6l-3.3,-4.9c.7,-6.3,8.4,-1.3,8.4,-1.3Z" class="g2_1" />
<path d="M417.8,758.6c0,0,-5.3,5,-11.4,-4l-18.6,-33l-.7,-10.9l1.6,-1.5c0,0,.9,-21.3,8.6,-26.7c0,0,13,-15,14.5,-22.1l-1,-39.4l10.1,-2.7l5,32.1l6.7,49.6L425,716.7l-9.6,25Z" class="g0_1" />
<path d="M417.8,758.6c0,0,-5.3,5,-11.4,-4l-18.6,-33l-.7,-10.9l1.6,-1.5c0,0,.9,-21.3,8.6,-26.7c0,0,13,-15,14.5,-22.1l-1,-39.4l10.1,-2.7l5,32.1l6.7,49.6L425,716.7l-9.6,25l2.4,16.9Z" class="g1_1" />
<path d="M401.6,624.2c0,0,65.1,-16,117.5,-7.4c0,0,3.7,1.2,.4,6.7c0,0,-6.8,13.5,-6.5,21c0,.3,.1,.6,.1,.9c1,7.3,2.3,9.9,2.3,9.9c0,0,29.2,15,57,10.9c0,0,5.6,-21.2,-.1,-43.2c0,0,-7.4,-38.1,-104.4,-35.8c0,0,-62.7,1.2,-118.3,40.8l-12.5,4l.6,10.2c0,0,3.3,-.2,3.5,2.5c0,0,-1.3,42,11.6,42.7c0,0,28.3,-2.5,48.2,-22.5c0,0,8,-7.6,-5.1,-28.8c0,0,-3.3,-9.6,5.7,-11.9Z" class="g3_1" />
<image x="410" y="609" width="146" height="152" xlink:href="1/shade/1.png" />
<path d="M417.2,621.1c0,0,-.5,-8.6,8.4,-8.3c0,0,7.3,-.9,7.7,5.4l.8,12.1c0,0,-.9,4.4,3.5,3.7L490,630.8c0,0,8.1,-.5,7.6,-8.7l-.5,-9c0,0,-1,-3.1,5,-3c0,0,6.9,-1.6,6.6,5.5l11.8,53.8c0,0,6.3,23.9,14.8,31.2c0,0,15.3,12.9,17.9,25.3l1.1,19.5c0,0,.8,6.2,-5.5,6.6l-132.4,8.1c0,0,-3.3,.6,-4,-4.5l-1.3,-21.5c0,0,1.1,-19.3,12.5,-32.9c0,0,5.1,-7.4,2.8,-21l-9.2,-59.1Z" class="g1_1" />
<path d="M520.2,682.7c1.2,21,-17.3,39.1,-41.4,40.6C454.6,724.8,434,709,432.8,688.1c-1.3,-21,17.2,-39.1,41.4,-40.6c24.1,-1.5,44.7,14.3,46,35.2Z" class="g4_1" />
<path d="M520,679.2c1.2,21,-17.3,39.1,-41.4,40.6c-24.2,1.5,-44.8,-14.3,-46.1,-35.3c-1.2,-20.9,17.3,-39.1,41.4,-40.5c24.2,-1.5,44.8,14.3,46.1,35.2Z" class="g2_1" />
<path d="M496.3,676.5c.6,9,-7.8,16.8,-18.8,17.5c-10.9,.6,-20.2,-6.1,-20.7,-15.1c-.6,-8.9,7.8,-16.7,18.8,-17.4c10.9,-.7,20.2,6.1,20.7,15Z" class="g5_1" />
<path d="M477.5,651.6c.2,3,-2,5.6,-4.9,5.8c-2.8,.2,-5.3,-2.2,-5.5,-5.2c-.1,-3,2,-5.6,4.9,-5.8c2.8,-.1,5.3,2.2,5.5,5.2Z" class="g5_1" />
<path d="M492.2,653.4c.2,3.1,-2,5.7,-4.8,5.8c-2.9,.2,-5.3,-2.1,-5.5,-5.1c-.2,-3.1,2,-5.6,4.8,-5.8c2.9,-.2,5.3,2.1,5.5,5.1Z" class="g5_1" />
<path d="M505.9,660.2c.2,3,-1.9,5.6,-4.8,5.7c-2.8,.2,-5.3,-2.1,-5.5,-5.1c-.2,-3,2,-5.6,4.8,-5.8c2.9,-.2,5.4,2.1,5.5,5.2Z" class="g5_1" />
<path d="M513.9,672.3c.2,3.1,-2,5.6,-4.8,5.8c-2.9,.2,-5.3,-2.1,-5.5,-5.1c-.2,-3.1,2,-5.7,4.8,-5.8c2.9,-.2,5.3,2.1,5.5,5.1Z" class="g5_1" />
<path d="M513.5,686.7c.2,3,-2,5.6,-4.9,5.8c-2.8,.1,-5.3,-2.2,-5.5,-5.2c-.1,-3,2,-5.6,4.9,-5.8c2.8,-.2,5.3,2.2,5.5,5.2Z" class="g5_1" />
<path d="M503.6,699c.2,3,-2,5.6,-4.9,5.7c-2.8,.2,-5.3,-2.1,-5.4,-5.1c-.2,-3,1.9,-5.6,4.8,-5.8c2.8,-.2,5.3,2.1,5.5,5.2Z" class="g5_1" />
<path d="M488.4,705.4c.2,3.3,-2.2,6.2,-5.3,6.4c-3.2,.2,-5.9,-2.4,-6.1,-5.7c-.2,-3.4,2.2,-6.3,5.3,-6.4c3.2,-.2,5.9,2.3,6.1,5.7Z" class="g5_1" />
<path d="M469.9,702.1c.2,3.2,-2.1,5.9,-5.1,6.1c-3,.2,-5.6,-2.3,-5.8,-5.5c-.2,-3.1,2.1,-5.9,5.1,-6.1c3,-.1,5.6,2.3,5.8,5.5Z" class="g5_1" />
<path d="M455.4,694.1c.2,3.1,-1.9,5.6,-4.8,5.8c-2.8,.2,-5.3,-2.1,-5.5,-5.1c-.2,-3.1,2,-5.7,4.8,-5.8c2.9,-.2,5.4,2.1,5.5,5.1Z" class="g5_1" />
<path d="M449.1,680.3c.2,3,-1.9,5.6,-4.8,5.8c-2.9,.2,-5.3,-2.2,-5.5,-5.2c-.2,-3,2,-5.6,4.8,-5.8c2.9,-.1,5.4,2.2,5.5,5.2Z" class="g5_1" />
<path d="M453.1,666.1c.2,3,-2,5.6,-4.8,5.8c-2.9,.2,-5.4,-2.1,-5.5,-5.2c-.2,-3,1.9,-5.6,4.8,-5.7c2.8,-.2,5.3,2.1,5.5,5.1Z" class="g5_1" />
<path d="M463.8,656.2c.2,3.1,-2,5.7,-4.9,5.8c-2.8,.2,-5.3,-2.1,-5.5,-5.1c-.1,-3.1,2,-5.6,4.9,-5.8c2.8,-.2,5.3,2.1,5.5,5.1Z" class="g5_1" />
<path d="M417.8,758.6l-2.4,-16.9l.9,-2.3l-5,-6.8l-22,-29.8c-.5,3.7,-.6,6.4,-.6,6.4l-1.6,1.5l.7,10.9l18.6,33c.2,.2,.3,.4,.5,.6l7.9,4.8c1.8,-.3,3,-1.4,3,-1.4Z" class="g2_1" />
<path d="M355.6,629.2l-11.1,3.5l.6,9c0,0,2.9,-.1,3,2.2c0,0,-1.1,37.1,10.3,37.7c0,0,5.4,-1.8,13.4,-4.4c-8.9,-22.7,-4.4,-39.8,-4.4,-39.8c9.8,-18.4,61,-36.2,85.3,-43.7c-16.6,1.6,-58.7,8.1,-97.1,35.5Z" class="g6_1" />
<path d="M411.3,732.6c-.1,.9,-.2,1.5,-.2,1.5l1.3,21.5c.7,5.1,4,4.5,4,4.5L548.8,752c6.3,-.4,5.5,-6.6,5.5,-6.6l-1.1,-19.5c-.1,-.3,-.2,-.6,-.2,-.8C489,758,424.2,737.3,411.3,732.6Z" class="g2_1" />
<path d="M554.3,745.4l-.1,-2.6l-.2,.1l-142.2,8.6l-24.4,-41l-.3,.2l.7,10.9l18.6,33c3.4,5,6.6,5.7,8.7,5.3c.7,.3,1.3,.2,1.3,.2L548.8,752c6.3,-.4,5.5,-6.6,5.5,-6.6Z" class="g2_1" />
<text transform="matrix(0.79, -0.5, 0.53, 0.85, 341, 624)" class="s1_1">S</text>
<text transform="matrix(0.81, -0.46, 0.49, 0.87, 356, 614)" class="s1_1">o</text>
<text transform="matrix(0.83, -0.42, 0.45, 0.89, 370, 606)" class="s1_1">s</text>
<text transform="matrix(0.86, -0.35, 0.38, 0.93, 389, 597)" class="s2_1">ž</text>
<text transform="matrix(0.88, -0.3, 0.32, 0.95, 405, 590)" class="s1_1">e</text>
<text transform="matrix(0.9, -0.23, 0.25, 0.97, 418, 586)" class="s1_1">n</text>
<text transform="matrix(0.92, -0.16, 0.17, 0.99, 435, 581)" class="s1_1">s</text>
<text transform="matrix(0.93, -0.08, 0.09, 1, 447, 579)" class="s1_1">k</text>
<text transform="matrix(0.93, -0.03, 0.03, 1, 465, 578)" class="s1_1">i</text>
<text transform="matrix(0.93, 0.01, -0.01, 1, 483, 577)" class="s1_1">c</text>
<text transform="matrix(0.93, 0.06, -0.06, 1, 497, 577)" class="s1_1">e</text>
<text transform="matrix(0.91, 0.18, -0.19, 0.98, 509, 578)" class="s1_1">n</text>
<text transform="matrix(0.87, 0.32, -0.34, 0.94, 527, 581)" class="s1_1">t</text>
<text transform="matrix(0.82, 0.43, -0.47, 0.88, 538, 585)" class="s1_1">a</text>
<text transform="matrix(0.76, 0.53, -0.57, 0.82, 552, 593)" class="s1_1">r</text>
<text transform="matrix(1.11, -0.06, 0.05, 1, 405, 790)" class="s3_1">N</text>
<text transform="matrix(1.11, -0.06, 0.05, 1, 435, 788)" class="s3_1">o</text>
<text transform="matrix(1.11, -0.06, 0.05, 1, 452, 787)" class="s3_1">v</text>
<text transform="matrix(1.11, -0.06, 0.05, 1, 471, 786)" class="s3_1">i</text>
<text transform="matrix(1.11, -0.06, 0.05, 1, 491, 785)" class="s3_1">S</text>
<text transform="matrix(1.11, -0.06, 0.05, 1, 511, 784)" class="s3_1">a</text>
<text transform="matrix(1.11, -0.06, 0.05, 1, 529, 783)" class="s3_1">d</text>

</g>

<!-- Any embedded fonts defined here -->
<style type="text/css" ><![CDATA[

@font-face {
	font-family: MonotypeCorsiva_1j;
	src: url("fonts/MonotypeCorsiva_1j.woff") format("woff");
}

@font-face {
	font-family: MonotypeCorsiva_1o;
	src: url("fonts/MonotypeCorsiva_1o.woff") format("woff");
}

]]></style>

</svg>
