<?xml version="1.0" encoding="utf-8"?>
<!-- Generator: Adobe Illustrator 16.0.0, SVG Export Plug-In . SVG Version: 6.00 Build 0)  -->
<!DOCTYPE svg PUBLIC "-//W3C//DTD SVG 1.1//EN" "http://www.w3.org/Graphics/SVG/1.1/DTD/svg11.dtd">
<svg version="1.1" id="Layer_1" xmlns="http://www.w3.org/2000/svg" xmlns:xlink="http://www.w3.org/1999/xlink" x="0px" y="0px"
	 width="57px" height="55px" viewBox="0 0 57 55" enable-background="new 0 0 57 55" xml:space="preserve">
<g>
	<g>
		<path fill="#1C1C1C" d="M38.865,4.4H18.135C11.102,4.4,5.4,10.103,5.4,17.136v20.729c0,7.033,5.702,12.734,12.735,12.734h20.729
			c7.033,0,12.736-5.701,12.736-12.734V17.136C51.601,10.103,45.897,4.4,38.865,4.4z M47.866,37.813c0,5-4.053,9.055-9.054,9.055
			H18.188c-5.001,0-9.055-4.055-9.055-9.055V17.188c0-5.001,4.054-9.055,9.055-9.055h20.624c5.001,0,9.054,4.054,9.054,9.055V37.813
			z"/>
		<path fill="#1C1C1C" d="M28.5,15.325c-6.724,0-12.175,5.451-12.175,12.176c0,6.724,5.451,12.175,12.175,12.175
			c6.725,0,12.175-5.451,12.175-12.175C40.675,20.776,35.224,15.325,28.5,15.325z M28.5,35.441c-4.386,0-7.94-3.555-7.94-7.94
			s3.555-7.941,7.94-7.941s7.941,3.556,7.941,7.941S32.885,35.441,28.5,35.441z"/>
		<circle fill="#1C1C1C" cx="41.089" cy="14.921" r="2.731"/>
	</g>
</g>
</svg>
