<?xml version="1.0" encoding="utf-8"?>
<!-- Generator: Adobe Illustrator 16.0.0, SVG Export Plug-In . SVG Version: 6.00 Build 0)  -->
<!DOCTYPE svg PUBLIC "-//W3C//DTD SVG 1.1//EN" "http://www.w3.org/Graphics/SVG/1.1/DTD/svg11.dtd">
<svg version="1.1" id="Layer_1" xmlns="http://www.w3.org/2000/svg" xmlns:xlink="http://www.w3.org/1999/xlink" x="0px" y="0px"
	 width="221.333px" height="173px" viewBox="0 0 221.333 173" enable-background="new 0 0 221.333 173" xml:space="preserve">
<g>
	<defs>
		<rect id="SVGID_1_" x="-183.667" y="-350.541" width="595.28" height="841.89"/>
	</defs>
	<clipPath id="SVGID_2_">
		<use xlink:href="#SVGID_1_"  overflow="visible"/>
	</clipPath>
	<g clip-path="url(#SVGID_2_)">
		<defs>
			<rect id="SVGID_3_" x="-183.667" y="-350.541" width="595.28" height="841.89"/>
		</defs>
		<clipPath id="SVGID_4_">
			<use xlink:href="#SVGID_3_"  overflow="visible"/>
		</clipPath>
		<path clip-path="url(#SVGID_4_)" fill="#E4E4E4" d="M136.268,49.077c0,0,2.4,13.03-2.213,16.291l9.167-0.985l2.151-10.766
			l-0.438-7.195L136.268,49.077z"/>
		<path clip-path="url(#SVGID_4_)" fill="none" stroke="#B6B6B7" d="M136.268,49.077c0,0,2.4,13.03-2.213,16.291l9.167-0.985
			l2.151-10.766l-0.438-7.195L136.268,49.077z"/>
		<path clip-path="url(#SVGID_4_)" fill="#986698" d="M65.542,121.669c4.534,2.807,8.482-0.001,8.482-0.001l-0.638-2.534
			c-4.129,3.851-6.488,0.912-6.488,0.912c-5.788-3.499-7.259,0.186-7.259,0.186l-10.911,7.859
			c-5.918,6.265,9.634,18.932,9.634,18.932c2.876,3.417,1.425,3.505,1.425,3.505c-9.444,4.171-25.53,2.576-25.53,2.576
			c-10.203-0.401-6.85-4.973-6.85-4.973c-0.124-2.045,5.324-36.019,5.324-36.019c1.067-5.201,3.242-39.087,3.451-42.339l3.094-1.468
			l-1.786-1.431l-4.315,1.382c-7.728-2.524-5.878,2.317-5.878,2.317c1.266,16.875-7.879,73.68-7.879,73.68
			c-4.574,16.457,9.845,18.398,9.845,18.398c28.198,5.478,40.073-6.545,40.073-6.545c6.486-8.866-9.535-21.244-9.535-21.244
			c-2.296-1.918-0.907-3.029-0.907-3.029l2.756-2.479c1.867-1.14,0.508-3.627,0.508-3.627l-2.135-3.208
			C60.499,118.38,65.542,121.669,65.542,121.669"/>
		<path clip-path="url(#SVGID_4_)" fill="#E4E4E4" d="M89.799,146.006c0,0-3.435,3.289-7.43-2.632l-12.215-21.598l-0.432-7.102
			l1.026-1.025c0,0,0.61-13.905,5.663-17.487c0,0,8.491-9.764,9.477-14.447l-0.655-25.77l6.617-1.751l3.276,20.992l4.338,32.478
			l-4.968,10.899l-6.278,16.366L89.799,146.006z"/>
		<path clip-path="url(#SVGID_4_)" fill="none" stroke="#B6B6B7" d="M89.799,146.006c0,0-3.435,3.289-7.43-2.632l-12.215-21.598
			l-0.432-7.102l1.026-1.025c0,0,0.61-13.905,5.663-17.487c0,0,8.491-9.764,9.477-14.447l-0.655-25.77l6.617-1.751l3.276,20.992
			l4.338,32.478l-4.968,10.899l-6.278,16.366L89.799,146.006z"/>
		<path clip-path="url(#SVGID_4_)" fill="#AB4D9C" d="M79.182,58.049c0,0,42.616-10.494,76.943-4.877c0,0,2.417,0.82,0.269,4.414
			c0,0-4.502,8.82-4.267,13.746c0.009,0.198,0.027,0.39,0.056,0.571c0.649,4.78,1.479,6.461,1.479,6.461s19.132,9.813,37.331,7.168
			c0,0,3.699-13.898-0.086-28.306c0,0-4.792-24.947-68.308-23.395c0,0-41.027,0.764-77.439,26.666l-8.2,2.618l0.409,6.722
			c0,0,2.173-0.131,2.278,1.594c0,0-0.854,27.517,7.597,27.995c0,0,18.543-1.655,31.553-14.772c0,0,5.274-4.948-3.319-18.807
			C75.478,65.848,73.276,59.563,79.182,58.049"/>
	</g>
	<g clip-path="url(#SVGID_2_)">
		<defs>
			<path id="SVGID_5_" d="M144.953,48.781c-3.874-0.021-3.271,1.994-3.271,1.994l0.358,5.889c0.327,5.371-4.984,5.694-4.984,5.694
				l-34.285,2.085c-2.877,0.436-2.327-2.425-2.327-2.425l-0.482-7.929c-0.25-4.096-5.063-3.547-5.063-3.547
				c-5.825-0.162-5.483,5.467-5.483,5.467L95.4,94.688c1.513,8.895-1.824,13.722-1.824,13.722
				c-7.455,8.927-8.144,21.554-8.144,21.554l0.857,14.071c0.445,3.31,2.601,2.926,2.601,2.926l86.675-5.272
				c4.108-0.25,3.612-4.334,3.612-4.334l-0.778-12.791c-1.701-8.114-11.662-16.499-11.662-16.499
				c-5.622-4.797-9.728-20.466-9.728-20.466l-7.717-35.231c0.138-3.191-1.972-3.688-3.3-3.688
				C145.393,48.68,144.953,48.781,144.953,48.781"/>
		</defs>
		<clipPath id="SVGID_6_">
			<use xlink:href="#SVGID_5_"  overflow="visible"/>
		</clipPath>
		
			<linearGradient id="SVGID_7_" gradientUnits="userSpaceOnUse" x1="-182.8179" y1="149.2656" x2="-181.8188" y2="149.2656" gradientTransform="matrix(193.3923 146.3689 146.3689 -193.3923 13596.2539 55690.1875)">
			<stop  offset="0" style="stop-color:#FFFFFF"/>
			<stop  offset="1" style="stop-color:#CFD0D2"/>
		</linearGradient>
		<polygon clip-path="url(#SVGID_6_)" fill="url(#SVGID_7_)" points="119.755,3.33 227.153,84.613 145.351,192.694 37.955,111.411 
					"/>
	</g>
	<g clip-path="url(#SVGID_2_)">
		<defs>
			<rect id="SVGID_8_" x="-183.667" y="-350.541" width="595.28" height="841.89"/>
		</defs>
		<clipPath id="SVGID_9_">
			<use xlink:href="#SVGID_8_"  overflow="visible"/>
		</clipPath>
		<path clip-path="url(#SVGID_9_)" fill="none" stroke="#B6B6B7" d="M89.416,56.01c0,0-0.342-5.63,5.483-5.469
			c0,0,4.813-0.547,5.062,3.548l0.483,7.929c0,0-0.551,2.861,2.326,2.426l34.286-2.086c0,0,5.31-0.322,4.983-5.693l-0.358-5.889
			c0,0-0.603-2.015,3.271-1.994c0,0,4.543-1.049,4.341,3.586l7.719,35.232c0,0,4.104,15.668,9.727,20.466
			c0,0,9.96,8.384,11.662,16.498l0.778,12.79c0,0,0.497,4.085-3.612,4.335l-86.676,5.273c0,0-2.155,0.383-2.601-2.926l-0.856-14.072
			c0,0,0.688-12.627,8.143-21.553c0,0,3.338-4.828,1.824-13.723L89.416,56.01z"/>
		<path clip-path="url(#SVGID_9_)" fill="#B6B6B7" d="M156.811,96.346c0.834,13.704-11.295,25.597-27.097,26.558
			c-15.799,0.961-29.284-9.372-30.118-23.077c-0.834-13.711,11.301-25.599,27.099-26.56
			C142.496,72.306,155.977,82.634,156.811,96.346"/>
		<path clip-path="url(#SVGID_9_)" fill="#986698" d="M156.67,94.039c0.834,13.709-11.295,25.6-27.097,26.562
			c-15.798,0.961-29.284-9.372-30.118-23.081c-0.834-13.704,11.301-25.599,27.099-26.561
			C142.356,69.998,155.836,80.336,156.67,94.039"/>
		<path clip-path="url(#SVGID_9_)" fill="#FFFFFF" d="M141.215,92.283c0.357,5.862-5.15,10.974-12.308,11.409
			c-7.15,0.435-13.241-3.971-13.599-9.833c-0.356-5.867,5.156-10.973,12.307-11.407C134.773,82.016,140.858,86.416,141.215,92.283"
			/>
		<path clip-path="url(#SVGID_9_)" fill="#FFFFFF" d="M128.861,75.953c0.12,1.977-1.3,3.68-3.164,3.792
			c-1.868,0.114-3.48-1.403-3.601-3.38c-0.121-1.98,1.296-3.674,3.164-3.788C127.125,72.464,128.742,73.974,128.861,75.953"/>
		<path clip-path="url(#SVGID_9_)" fill="#FFFFFF" d="M138.505,77.166c0.12,1.977-1.296,3.679-3.162,3.792
			c-1.867,0.113-3.479-1.403-3.599-3.381c-0.121-1.979,1.296-3.673,3.163-3.787C136.773,73.677,138.385,75.187,138.505,77.166"/>
		<path clip-path="url(#SVGID_9_)" fill="#FFFFFF" d="M147.498,81.562c0.121,1.98-1.301,3.675-3.164,3.788
			c-1.869,0.114-3.478-1.396-3.598-3.377c-0.12-1.976,1.292-3.672,3.161-3.786C145.761,78.073,147.377,79.586,147.498,81.562"/>
		<path clip-path="url(#SVGID_9_)" fill="#FFFFFF" d="M152.702,89.53c0.12,1.978-1.293,3.675-3.16,3.788
			c-1.866,0.114-3.477-1.4-3.598-3.377c-0.12-1.979,1.297-3.673,3.162-3.786C150.974,86.041,152.582,87.552,152.702,89.53"/>
		<path clip-path="url(#SVGID_9_)" fill="#FFFFFF" d="M152.425,98.923c0.12,1.977-1.293,3.676-3.162,3.788
			c-1.863,0.114-3.476-1.4-3.596-3.377c-0.12-1.98,1.296-3.678,3.16-3.792C150.697,95.43,152.305,96.942,152.425,98.923"/>
		<path clip-path="url(#SVGID_9_)" fill="#FFFFFF" d="M145.953,106.955c0.119,1.98-1.297,3.673-3.166,3.786
			c-1.864,0.114-3.476-1.395-3.597-3.375c-0.12-1.978,1.296-3.678,3.16-3.792C144.22,103.461,145.833,104.979,145.953,106.955"/>
		<path clip-path="url(#SVGID_9_)" fill="#FFFFFF" d="M136.025,111.152c0.133,2.188-1.433,4.071-3.499,4.197
			c-2.069,0.126-3.851-1.554-3.984-3.742c-0.133-2.19,1.434-4.064,3.501-4.19S135.892,108.962,136.025,111.152"/>
		<path clip-path="url(#SVGID_9_)" fill="#FFFFFF" d="M123.9,109c0.127,2.087-1.363,3.873-3.332,3.993
			c-1.968,0.119-3.665-1.473-3.792-3.56c-0.127-2.083,1.364-3.869,3.332-3.988C122.077,105.325,123.773,106.917,123.9,109"/>
		<path clip-path="url(#SVGID_9_)" fill="#FFFFFF" d="M114.438,103.802c0.121,1.98-1.297,3.669-3.164,3.782
			c-1.866,0.113-3.475-1.391-3.596-3.372c-0.12-1.98,1.294-3.678,3.16-3.792C112.706,100.308,114.317,101.82,114.438,103.802"/>
		<path clip-path="url(#SVGID_9_)" fill="#FFFFFF" d="M110.313,94.741c0.12,1.976-1.296,3.676-3.165,3.788
			c-1.866,0.114-3.476-1.4-3.596-3.377c-0.121-1.979,1.294-3.678,3.159-3.791C108.581,91.247,110.193,92.763,110.313,94.741"/>
		<path clip-path="url(#SVGID_9_)" fill="#FFFFFF" d="M112.895,85.462c0.121,1.981-1.292,3.679-3.16,3.792
			c-1.869,0.113-3.477-1.399-3.598-3.381c-0.12-1.975,1.293-3.674,3.162-3.788C111.167,81.972,112.774,83.487,112.895,85.462"/>
		<path clip-path="url(#SVGID_9_)" fill="#FFFFFF" d="M119.893,79.003c0.121,1.983-1.292,3.678-3.162,3.792
			c-1.863,0.112-3.475-1.397-3.596-3.381c-0.12-1.98,1.297-3.67,3.161-3.783C118.165,75.517,119.773,77.022,119.893,79.003"/>
		<path clip-path="url(#SVGID_9_)" fill="#986698" d="M89.799,146.006l-1.581-11.076l0.584-1.516l-3.283-4.455l-14.37-19.48
			c-0.321,2.422-0.401,4.171-0.401,4.171l-1.026,1.025l0.432,7.102l12.215,21.598c0.092,0.136,0.18,0.254,0.268,0.381l5.177,3.138
			C89.042,146.735,89.799,146.006,89.799,146.006"/>
		<g opacity="0.54" clip-path="url(#SVGID_9_)">
			<g>
				<defs>
					<rect id="SVGID_10_" x="41.835" y="38.074" width="70.799" height="57.525"/>
				</defs>
				<clipPath id="SVGID_11_">
					<use xlink:href="#SVGID_10_"  overflow="visible"/>
				</clipPath>
				<path clip-path="url(#SVGID_11_)" fill="#FFFFFF" d="M49.065,61.275l-7.23,2.309l0.36,5.924c0,0,1.918-0.115,2.01,1.406
					c0,0-0.756,24.269,6.696,24.686c0,0,3.53-1.199,8.76-2.852c-5.806-14.907-2.839-26.055-2.839-26.055
					c6.392-12.065,39.947-23.696,55.812-28.621C101.813,39.096,74.192,43.396,49.065,61.275"/>
			</g>
		</g>
		<path clip-path="url(#SVGID_9_)" fill="#986698" d="M85.52,128.96c-0.064,0.639-0.086,1.004-0.086,1.004l0.856,14.071
			c0.446,3.31,2.601,2.927,2.601,2.927l86.675-5.273c4.109-0.25,3.613-4.334,3.613-4.334l-0.778-12.791
			c-0.03-0.169-0.076-0.342-0.122-0.511C136.437,145.616,93.965,132.049,85.52,128.96"/>
		<path clip-path="url(#SVGID_9_)" fill="#986698" d="M179.178,137.354l-0.104-1.689l-0.112,0.035l-93.08,5.662L69.892,114.5
			l-0.17,0.175l0.432,7.102l12.215,21.598c2.224,3.292,4.275,3.739,5.656,3.483c0.477,0.173,0.865,0.104,0.865,0.104l86.676-5.271
			C179.675,141.439,179.178,137.354,179.178,137.354"/>
	</g>
	<g clip-path="url(#SVGID_2_)">
		
			<text transform="matrix(0.8452 -0.5345 0.5754 0.9099 39.8042 57.9268)" fill="#996699" font-family="'MonotypeCorsiva'" font-size="26.4785">S</text>
	</g>
	<g clip-path="url(#SVGID_2_)">
		
			<text transform="matrix(0.8713 -0.4907 0.5283 0.938 49.9058 51.5537)" fill="#996699" font-family="'MonotypeCorsiva'" font-size="26.4786">o</text>
	</g>
	<g clip-path="url(#SVGID_2_)">
		
			<text transform="matrix(0.8925 -0.4511 0.4856 0.9608 58.9556 46.4766)" fill="#996699" font-family="'MonotypeCorsiva'" font-size="26.4786">s</text>
	</g>
	<g clip-path="url(#SVGID_2_)">
		
			<text transform="matrix(0.908 -0.419 0.4511 0.9775 66.3794 42.748)" fill="#996699" font-family="'MonotypeCorsiva'" font-size="26.4786"> </text>
	</g>
	<g clip-path="url(#SVGID_2_)">
		
			<text transform="matrix(0.9262 -0.3771 0.4059 0.9971 71.4546 40.3223)" fill="#996699" font-family="'MonotypeCorsiva'" font-size="26.4785">ž</text>
	</g>
	<g clip-path="url(#SVGID_2_)">
		
			<text transform="matrix(0.9467 -0.3222 0.3469 1.0191 82.0034 36.0498)" fill="#996699" font-family="'MonotypeCorsiva'" font-size="26.4785">e</text>
	</g>
	<g clip-path="url(#SVGID_2_)">
		
			<text transform="matrix(0.9676 -0.2525 0.2719 1.0416 90.1782 33.1621)" fill="#996699" font-family="'MonotypeCorsiva'" font-size="26.4786">n</text>
	</g>
	<g clip-path="url(#SVGID_2_)">
		
			<text transform="matrix(0.9854 -0.1703 0.1834 1.0608 101.5952 30.2305)" fill="#996699" font-family="'MonotypeCorsiva'" font-size="26.4786">s</text>
	</g>
	<g clip-path="url(#SVGID_2_)">
		
			<text transform="matrix(0.9959 -0.09 0.0969 1.0722 109.562 28.793)" fill="#996699" font-family="'MonotypeCorsiva'" font-size="26.4786">k</text>
	</g>
	<g clip-path="url(#SVGID_2_)">
		
			<text transform="matrix(0.9995 -0.0331 0.0357 1.076 120.9204 27.8994)" fill="#996699" font-family="'MonotypeCorsiva'" font-size="26.4786">i</text>
	</g>
	<g clip-path="url(#SVGID_2_)">
		
			<text transform="matrix(0.9999 -0.0127 0.0137 1.0765 127.1567 27.7363)" fill="#996699" font-family="'MonotypeCorsiva'" font-size="26.4785"> </text>
	</g>
	<g clip-path="url(#SVGID_2_)">
		
			<text transform="matrix(1 0.0077 -0.0082 1.0765 132.894 27.6182)" fill="#996699" font-family="'MonotypeCorsiva'" font-size="26.4786">c</text>
	</g>
	<g clip-path="url(#SVGID_2_)">
		
			<text transform="matrix(0.9979 0.0645 -0.0695 1.0743 141.6431 27.5986)" fill="#996699" font-family="'MonotypeCorsiva'" font-size="26.4786">e</text>
	</g>
	<g clip-path="url(#SVGID_2_)">
		
			<text transform="matrix(0.9812 0.1927 -0.2075 1.0564 150.0679 27.9248)" fill="#996699" font-family="'MonotypeCorsiva'" font-size="26.4786">n</text>
	</g>
	<g clip-path="url(#SVGID_2_)">
		
			<text transform="matrix(0.9406 0.3396 -0.3656 1.0126 161.3062 30.2207)" fill="#996699" font-family="'MonotypeCorsiva'" font-size="26.4786">t</text>
	</g>
	<g clip-path="url(#SVGID_2_)">
		
			<text transform="matrix(0.8849 0.4657 -0.5014 0.9527 168.7388 32.7754)" fill="#996699" font-family="'MonotypeCorsiva'" font-size="26.4786">a</text>
	</g>
	<g clip-path="url(#SVGID_2_)">
		
			<text transform="matrix(0.82 0.5723 -0.6161 0.8828 178.0386 37.7559)" fill="#996699" font-family="'MonotypeCorsiva'" font-size="26.4786">r</text>
	</g>
	<g clip-path="url(#SVGID_2_)">
		
			<text transform="matrix(1.1131 -0.0571 0.0512 0.9987 81.4478 166.5938)" fill="#996699" font-family="'MonotypeCorsiva'" font-size="25.5119">N</text>
	</g>
	<g clip-path="url(#SVGID_2_)">
		
			<text transform="matrix(1.1131 -0.0571 0.0512 0.9987 101.3423 165.5723)" fill="#996699" font-family="'MonotypeCorsiva'" font-size="25.5118">o</text>
	</g>
	<g clip-path="url(#SVGID_2_)">
		
			<text transform="matrix(1.1131 -0.0571 0.0512 0.9987 112.7065 164.9912)" fill="#996699" font-family="'MonotypeCorsiva'" font-size="25.5119">v</text>
	</g>
	<g clip-path="url(#SVGID_2_)">
		
			<text transform="matrix(1.1131 -0.0571 0.0512 0.9987 125.1831 164.3516)" fill="#996699" font-family="'MonotypeCorsiva'" font-size="25.5118">i</text>
	</g>
	<g clip-path="url(#SVGID_2_)">
		
			<text transform="matrix(1.1131 -0.0571 0.0512 0.9987 132.0044 164.002)" fill="#996699" font-family="'MonotypeCorsiva'" font-size="25.5119"> </text>
	</g>
	<g clip-path="url(#SVGID_2_)">
		
			<text transform="matrix(1.1131 -0.0571 0.0512 0.9987 138.2319 163.6826)" fill="#996699" font-family="'MonotypeCorsiva'" font-size="25.5118">S</text>
	</g>
	<g clip-path="url(#SVGID_2_)">
		
			<text transform="matrix(1.1131 -0.0571 0.0512 0.9987 151.311 163.0117)" fill="#996699" font-family="'MonotypeCorsiva'" font-size="25.5118">a</text>
	</g>
	<g clip-path="url(#SVGID_2_)">
		
			<text transform="matrix(1.1131 -0.0571 0.0512 0.9987 163.2417 162.4004)" fill="#996699" font-family="'MonotypeCorsiva'" font-size="25.5119">d</text>
	</g>
</g>
</svg>
