<?xml version="1.0" encoding="utf-8"?>
<!-- Generator: Adobe Illustrator 16.0.0, SVG Export Plug-In . SVG Version: 6.00 Build 0)  -->
<!DOCTYPE svg PUBLIC "-//W3C//DTD SVG 1.1//EN" "http://www.w3.org/Graphics/SVG/1.1/DTD/svg11.dtd">
<svg version="1.1" id="Flag" xmlns="http://www.w3.org/2000/svg" xmlns:xlink="http://www.w3.org/1999/xlink" x="0px" y="0px"
	 width="1990px" height="1050px" viewBox="0 0 1990 1050" enable-background="new 0 0 1990 1050" xml:space="preserve">
<rect y="0.095" fill="#FFFFFF" width="1989.479" height="1048.199"/>
<polygon fill="#1A1A1A" points="1989.629,419.525 1113.632,419.525 1113.632,0.161 874.514,0.161 874.514,419.525 0.833,419.525 
	0.833,629.092 874.514,629.092 874.514,1048.284 1113.632,1048.284 1113.632,629.092 1989.629,629.092 "/>
<polygon fill="#666666" points="0.019,122.154 0.019,350.376 433.953,350.376 "/>
<polygon fill="#666666" points="239.417,0.05 233.06,0.339 795.718,297.83 795.718,0.05 "/>
<polygon fill="#1A1A1A" points="667.793,348.932 0.019,0.105 0.019,82.323 508.669,348.932 "/>
<polygon fill="#1A1A1A" points="1322.212,699.359 1989.986,1048.187 1989.986,965.969 1481.336,699.359 "/>
<polygon fill="#666666" points="0.019,927.896 0.019,699.674 433.953,699.674 "/>
<polygon fill="#666666" points="239.417,1050 233.06,1049.71 795.718,752.222 795.718,1050 "/>
<polygon fill="#1A1A1A" points="664.378,699.336 0.456,1048.009 155.729,1048.163 796.355,713.516 796.355,699.336 "/>
<polygon fill="#666666" points="1990,122.104 1990,350.324 1556.068,350.324 "/>
<polygon fill="#666666" points="1750.602,0 1756.96,0.288 1194.303,297.778 1194.303,0 "/>
<polygon fill="#1A1A1A" points="1989.359,0.488 1840.014,0.476 1194.873,337.479 1194.873,349.303 1331.363,349.303 "/>
<polygon fill="#666666" points="1998,927.896 1998,699.674 1564.068,699.674 "/>
<polygon fill="#666666" points="1750.602,1049.912 1756.96,1049.625 1194.303,752.135 1194.303,1049.912 "/>
</svg>
